<?xml version="1.0" encoding="UTF-8" standalone="no"?>
<!DOCTYPE svg PUBLIC "-//W3C//DTD SVG 1.1//EN"
 "http://www.w3.org/Graphics/SVG/1.1/DTD/svg11.dtd">
<!-- Generated by graphviz version 2.28.0 (20130928.0220)
 -->
<!-- Title: Argushiigi Pages: 1 -->
<svg width="770pt" height="592pt"
 viewBox="0.00 0.00 770.00 592.00" xmlns="http://www.w3.org/2000/svg" xmlns:xlink="http://www.w3.org/1999/xlink">
<g id="graph1" class="graph" transform="scale(1 1) rotate(0) translate(4 588)">
<title>Argushiigi</title>
<polygon fill="white" stroke="white" points="-4,5 -4,-588 767,-588 767,5 -4,5"/>
<g id="graph3" class="cluster"><title>cluster_1</title>
<a xlink:title="http://www.w3.org/1999/02/22&#45;rdf&#45;syntax&#45;ns#">
<polygon fill="#f0f0f8" stroke="black" points="661,-378 661,-501 751,-501 751,-378 661,-378"/>
<text text-anchor="middle" x="706" y="-490.6" font-family="sans-serif" font-size="8.00">rdf:</text>
</a>
</g>
<g id="graph4" class="cluster"><title>cluster_2</title>
<a xlink:title="http://www.w3.org/2001/XMLSchema#">
<polygon fill="#f0f0f8" stroke="black" points="658,-193 658,-370 754,-370 754,-193 658,-193"/>
<text text-anchor="middle" x="706" y="-359.6" font-family="sans-serif" font-size="8.00">xsd:</text>
</a>
</g>
<!-- Category -->
<g id="node2" class="node"><title>Category</title>
<a xlink:href="argushiigi.html#Category" xlink:title="Display Category" target="_top">
<polygon fill="#c0d2ff" stroke="#c0d2ff" points="372,-557 336,-557 324,-545 324,-533 336,-521 372,-521 384,-533 384,-545 372,-557"/>
<path fill="#c0d2ff" stroke="#c0d2ff" d="M336,-557C330,-557 324,-551 324,-545"/>
<path fill="#c0d2ff" stroke="#c0d2ff" d="M324,-533C324,-527 330,-521 336,-521"/>
<path fill="#c0d2ff" stroke="#c0d2ff" d="M372,-521C378,-521 384,-527 384,-533"/>
<path fill="#c0d2ff" stroke="#c0d2ff" d="M384,-545C384,-551 378,-557 372,-557"/>
<polyline fill="none" stroke="#c0d2ff" points="372,-557 336,-557 "/>
<path fill="none" stroke="#c0d2ff" d="M336,-557C330,-557 324,-551 324,-545"/>
<polyline fill="none" stroke="#c0d2ff" points="324,-545 324,-533 "/>
<path fill="none" stroke="#c0d2ff" d="M324,-533C324,-527 330,-521 336,-521"/>
<polyline fill="none" stroke="#c0d2ff" points="336,-521 372,-521 "/>
<path fill="none" stroke="#c0d2ff" d="M372,-521C378,-521 384,-527 384,-533"/>
<polyline fill="none" stroke="#c0d2ff" points="384,-533 384,-545 "/>
<path fill="none" stroke="#c0d2ff" d="M384,-545C384,-551 378,-557 372,-557"/>
<text text-anchor="middle" x="354" y="-536.5" font-family="sans-serif" font-size="10.00">Category</text>
</a>
</g>
<!-- parentCategory -->
<g id="node39" class="node"><title>parentCategory</title>
<a xlink:href="argushiigi.html#parentCategory" xlink:title="parentCategory" target="_top">
<text text-anchor="middle" x="530" y="-563.5" font-family="sans-serif" font-size="10.00">parentCategory</text>
</a>
</g>
<!-- Category&#45;&gt;parentCategory -->
<g id="edge39" class="edge"><title>Category&#45;&gt;parentCategory</title>
<a xlink:href="argushiigi.html#parentCategory" xlink:title="Category → parentCategory" target="_top">
<path fill="none" stroke="#6830d0" d="M394.235,-545.088C445.551,-553.051 529,-566 529,-566"/>
<polygon fill="#6830d0" stroke="#6830d0" points="384.124,-543.519 394.695,-540.606 389.065,-544.286 394.005,-545.053 394.005,-545.053 394.005,-545.053 389.065,-544.286 393.315,-549.499 384.124,-543.519 384.124,-543.519"/>
</a>
</g>
<!-- sortProperty -->
<g id="node58" class="node"><title>sortProperty</title>
<a xlink:href="argushiigi.html#sortProperty" xlink:title="sort property" target="_top">
<text text-anchor="middle" x="530" y="-509.5" font-family="sans-serif" font-size="10.00">sortProperty</text>
</a>
</g>
<!-- Category&#45;&gt;sortProperty -->
<g id="edge59" class="edge"><title>Category&#45;&gt;sortProperty</title>
<a xlink:href="argushiigi.html#sortProperty" xlink:title="Category → sortProperty" target="_top">
<path fill="none" stroke="#6830d0" d="M384.124,-534.481C433.657,-526.795 529,-512 529,-512"/>
</a>
</g>
<!-- Format -->
<g id="node3" class="node"><title>Format</title>
<a xlink:href="argushiigi.html#Format" xlink:title="Format" target="_top">
<polygon fill="#c0d2ff" stroke="#c0d2ff" points="369,-422 339,-422 327,-410 327,-398 339,-386 369,-386 381,-398 381,-410 369,-422"/>
<path fill="#c0d2ff" stroke="#c0d2ff" d="M339,-422C333,-422 327,-416 327,-410"/>
<path fill="#c0d2ff" stroke="#c0d2ff" d="M327,-398C327,-392 333,-386 339,-386"/>
<path fill="#c0d2ff" stroke="#c0d2ff" d="M369,-386C375,-386 381,-392 381,-398"/>
<path fill="#c0d2ff" stroke="#c0d2ff" d="M381,-410C381,-416 375,-422 369,-422"/>
<polyline fill="none" stroke="#c0d2ff" points="369,-422 339,-422 "/>
<path fill="none" stroke="#c0d2ff" d="M339,-422C333,-422 327,-416 327,-410"/>
<polyline fill="none" stroke="#c0d2ff" points="327,-410 327,-398 "/>
<path fill="none" stroke="#c0d2ff" d="M327,-398C327,-392 333,-386 339,-386"/>
<polyline fill="none" stroke="#c0d2ff" points="339,-386 369,-386 "/>
<path fill="none" stroke="#c0d2ff" d="M369,-386C375,-386 381,-392 381,-398"/>
<polyline fill="none" stroke="#c0d2ff" points="381,-398 381,-410 "/>
<path fill="none" stroke="#c0d2ff" d="M381,-410C381,-416 375,-422 369,-422"/>
<text text-anchor="middle" x="354" y="-401.5" font-family="sans-serif" font-size="10.00">Format</text>
</a>
</g>
<!-- language -->
<g id="node27" class="node"><title>language</title>
<a xlink:href="argushiigi.html#language" xlink:title="language" target="_top">
<text text-anchor="middle" x="530" y="-293.5" font-family="sans-serif" font-size="10.00">language</text>
</a>
</g>
<!-- Format&#45;&gt;language -->
<g id="edge25" class="edge"><title>Format&#45;&gt;language</title>
<a xlink:href="argushiigi.html#language" xlink:title="Format → language" target="_top">
<path fill="none" stroke="#00c000" d="M380.803,-385.767C384.893,-382.848 389.069,-379.85 393,-377 425.673,-353.312 430.996,-343.084 466,-323 492.423,-307.84 529,-296 529,-296"/>
</a>
</g>
<!-- pattern -->
<g id="node42" class="node"><title>pattern</title>
<a xlink:href="argushiigi.html#pattern" xlink:title="pattern" target="_top">
<text text-anchor="middle" x="530" y="-401.5" font-family="sans-serif" font-size="10.00">pattern</text>
</a>
</g>
<!-- Format&#45;&gt;pattern -->
<g id="edge43" class="edge"><title>Format&#45;&gt;pattern</title>
<a xlink:href="argushiigi.html#pattern" xlink:title="Format → pattern" target="_top">
<path fill="none" stroke="#6830d0" d="M381.05,-404C429.59,-404 529,-404 529,-404"/>
</a>
</g>
<!-- Pattern -->
<g id="node4" class="node"><title>Pattern</title>
<a xlink:href="argushiigi.html#Pattern" xlink:title="Pattern" target="_top">
<polygon fill="#c0d2ff" stroke="#c0d2ff" points="369,-368 339,-368 327,-356 327,-344 339,-332 369,-332 381,-344 381,-356 369,-368"/>
<path fill="#c0d2ff" stroke="#c0d2ff" d="M339,-368C333,-368 327,-362 327,-356"/>
<path fill="#c0d2ff" stroke="#c0d2ff" d="M327,-344C327,-338 333,-332 339,-332"/>
<path fill="#c0d2ff" stroke="#c0d2ff" d="M369,-332C375,-332 381,-338 381,-344"/>
<path fill="#c0d2ff" stroke="#c0d2ff" d="M381,-356C381,-362 375,-368 369,-368"/>
<polyline fill="none" stroke="#c0d2ff" points="369,-368 339,-368 "/>
<path fill="none" stroke="#c0d2ff" d="M339,-368C333,-368 327,-362 327,-356"/>
<polyline fill="none" stroke="#c0d2ff" points="327,-356 327,-344 "/>
<path fill="none" stroke="#c0d2ff" d="M327,-344C327,-338 333,-332 339,-332"/>
<polyline fill="none" stroke="#c0d2ff" points="339,-332 369,-332 "/>
<path fill="none" stroke="#c0d2ff" d="M369,-332C375,-332 381,-338 381,-344"/>
<polyline fill="none" stroke="#c0d2ff" points="381,-344 381,-356 "/>
<path fill="none" stroke="#c0d2ff" d="M381,-356C381,-362 375,-368 369,-368"/>
<text text-anchor="middle" x="354" y="-347.5" font-family="sans-serif" font-size="10.00">Pattern</text>
</a>
</g>
<!-- SubPattern -->
<g id="node5" class="node"><title>SubPattern</title>
<a xlink:href="argushiigi.html#SubPattern" xlink:title="pattern" target="_top">
<polygon fill="#c0d2ff" stroke="#c0d2ff" points="553,-152 507,-152 495,-140 495,-128 507,-116 553,-116 565,-128 565,-140 553,-152"/>
<path fill="#c0d2ff" stroke="#c0d2ff" d="M507,-152C501,-152 495,-146 495,-140"/>
<path fill="#c0d2ff" stroke="#c0d2ff" d="M495,-128C495,-122 501,-116 507,-116"/>
<path fill="#c0d2ff" stroke="#c0d2ff" d="M553,-116C559,-116 565,-122 565,-128"/>
<path fill="#c0d2ff" stroke="#c0d2ff" d="M565,-140C565,-146 559,-152 553,-152"/>
<polyline fill="none" stroke="#c0d2ff" points="553,-152 507,-152 "/>
<path fill="none" stroke="#c0d2ff" d="M507,-152C501,-152 495,-146 495,-140"/>
<polyline fill="none" stroke="#c0d2ff" points="495,-140 495,-128 "/>
<path fill="none" stroke="#c0d2ff" d="M495,-128C495,-122 501,-116 507,-116"/>
<polyline fill="none" stroke="#c0d2ff" points="507,-116 553,-116 "/>
<path fill="none" stroke="#c0d2ff" d="M553,-116C559,-116 565,-122 565,-128"/>
<polyline fill="none" stroke="#c0d2ff" points="565,-128 565,-140 "/>
<path fill="none" stroke="#c0d2ff" d="M565,-140C565,-146 559,-152 553,-152"/>
<text text-anchor="middle" x="530" y="-131.5" font-family="sans-serif" font-size="10.00">SubPattern</text>
</a>
</g>
<!-- Pattern&#45;&gt;SubPattern -->
<g id="edge3" class="edge"><title>Pattern&#45;&gt;SubPattern</title>
<a xlink:href="argushiigi.html#argushiigi" target="_top">
<path fill="none" stroke="#306098" d="M388.889,-327.496C390.346,-326.047 391.728,-324.547 393,-323 443.159,-262.003 409.645,-216.324 466,-161 473.982,-153.164 484.597,-147.442 494.834,-143.339"/>
<polygon fill="none" stroke="#306098" points="386.352,-325.064 381.119,-334.276 390.955,-330.338 386.352,-325.064"/>
</a>
</g>
<!-- implementationFormat -->
<g id="node12" class="node"><title>implementationFormat</title>
<a xlink:href="argushiigi.html#implementationFormat" xlink:title="implementationFormat" target="_top">
<text text-anchor="middle" x="530" y="-77.5" font-family="sans-serif" font-size="10.00">implementationFormat</text>
</a>
</g>
<!-- Pattern&#45;&gt;implementationFormat -->
<g id="edge17" class="edge"><title>Pattern&#45;&gt;implementationFormat</title>
<a xlink:href="argushiigi.html#implementationFormat" xlink:title="Pattern → implementationFormat" target="_top">
<path fill="none" stroke="#00c000" d="M381.067,-334.847C385.495,-331.391 389.716,-327.416 393,-323 453.474,-241.688 397.231,-181.427 466,-107 486.673,-84.6257 529,-80 529,-80"/>
</a>
</g>
<!-- Pattern&#45;&gt;language -->
<g id="edge27" class="edge"><title>Pattern&#45;&gt;language</title>
<a xlink:href="argushiigi.html#language" xlink:title="Pattern → language" target="_top">
<path fill="none" stroke="#00c000" d="M381.05,-341.916C429.59,-326.851 529,-296 529,-296"/>
</a>
</g>
<!-- literal -->
<g id="node32" class="node"><title>literal</title>
<a xlink:href="argushiigi.html#literal" xlink:title="literal" target="_top">
<text text-anchor="middle" x="530" y="-15.5" font-family="sans-serif" font-size="10.00">literal</text>
</a>
</g>
<!-- Pattern&#45;&gt;literal -->
<g id="edge31" class="edge"><title>Pattern&#45;&gt;literal</title>
<a xlink:href="argushiigi.html#literal" xlink:title="Pattern → literal" target="_top">
<path fill="none" stroke="#00c000" d="M381.291,-335.008C385.698,-331.537 389.854,-327.515 393,-323 464.064,-221.007 389.404,-150.907 466,-53 485.737,-27.7722 529,-18 529,-18"/>
</a>
</g>
<!-- multiple -->
<g id="node36" class="node"><title>multiple</title>
<a xlink:href="argushiigi.html#multiple" xlink:title="multiple" target="_top">
<text text-anchor="middle" x="530" y="-239.5" font-family="sans-serif" font-size="10.00">multiple</text>
</a>
</g>
<!-- Pattern&#45;&gt;multiple -->
<g id="edge35" class="edge"><title>Pattern&#45;&gt;multiple</title>
<a xlink:href="argushiigi.html#multiple" xlink:title="Pattern → multiple" target="_top">
<path fill="none" stroke="#00c000" d="M380.803,-331.767C384.893,-328.848 389.069,-325.85 393,-323 425.673,-299.312 430.996,-289.084 466,-269 492.423,-253.84 529,-242 529,-242"/>
</a>
</g>
<!-- property -->
<g id="node51" class="node"><title>property</title>
<a xlink:href="argushiigi.html#property" xlink:title="from property" target="_top">
<text text-anchor="middle" x="530" y="-347.5" font-family="sans-serif" font-size="10.00">property</text>
</a>
</g>
<!-- Pattern&#45;&gt;property -->
<g id="edge51" class="edge"><title>Pattern&#45;&gt;property</title>
<a xlink:href="argushiigi.html#property" xlink:title="Pattern → property" target="_top">
<path fill="none" stroke="#6830d0" d="M381.05,-350C429.59,-350 529,-350 529,-350"/>
</a>
</g>
<!-- required -->
<g id="node55" class="node"><title>required</title>
<a xlink:href="argushiigi.html#required" xlink:title="required" target="_top">
<text text-anchor="middle" x="530" y="-185.5" font-family="sans-serif" font-size="10.00">required</text>
</a>
</g>
<!-- Pattern&#45;&gt;required -->
<g id="edge55" class="edge"><title>Pattern&#45;&gt;required</title>
<a xlink:href="argushiigi.html#required" xlink:title="Pattern → required" target="_top">
<path fill="none" stroke="#00c000" d="M381.352,-333.168C385.457,-330.024 389.494,-326.589 393,-323 433.486,-281.557 421.341,-251.908 466,-215 489.482,-195.594 529,-188 529,-188"/>
</a>
</g>
<!-- category -->
<g id="node7" class="node"><title>category</title>
<a xlink:href="argushiigi.html#category" xlink:title="category" target="_top">
<text text-anchor="middle" x="178" y="-536.5" font-family="sans-serif" font-size="10.00">category</text>
</a>
</g>
<!-- category&#45;&gt;Category -->
<g id="edge7" class="edge"><title>category&#45;&gt;Category</title>
<a xlink:href="argushiigi.html#category" xlink:title="category → Category" target="_top">
<path fill="none" stroke="#969600" d="M179,-539C179,-539 262.449,-539 313.765,-539"/>
<polygon fill="#969600" stroke="#969600" points="323.876,-539 313.876,-543.5 318.876,-539 313.876,-539 313.876,-539 313.876,-539 318.876,-539 313.876,-534.5 323.876,-539 323.876,-539"/>
</a>
</g>
<!-- category:domain -->
<g id="node8" class="node"><title>category:domain</title>
<a xlink:href="argushiigi.html#argushiigi" xlink:title="any" target="_top">
<ellipse fill="#a0a0a0" stroke="#a0a0a0" cx="2" cy="-539" rx="1.8" ry="1.8"/>
</a>
</g>
<!-- category:domain&#45;&gt;category -->
<g id="edge5" class="edge"><title>category:domain&#45;&gt;category</title>
<a xlink:href="argushiigi.html#category" xlink:title="any → category" target="_top">
<path fill="none" stroke="#969600" d="M4.11113,-539C18.9302,-539 177,-539 177,-539"/>
</a>
</g>
<!-- eHex -->
<g id="node11" class="node"><title>eHex</title>
<a xlink:href="argushiigi.html#eHex" xlink:title="eHex" target="_top">
<text text-anchor="middle" x="706" y="-124.5" font-family="sans-serif" font-size="10.00">eHex</text>
</a>
</g>
<!-- xsd:boolean -->
<g id="node15" class="node"><title>xsd:boolean</title>
<a xlink:href="http://www.w3.org/2001/XMLSchema#boolean" xlink:title="xsd:boolean" target="_top">
<polygon fill="#9bff9b" stroke="#9bff9b" points="731,-237 681,-237 669,-225 669,-213 681,-201 731,-201 743,-213 743,-225 731,-237"/>
<path fill="#9bff9b" stroke="#9bff9b" d="M681,-237C675,-237 669,-231 669,-225"/>
<path fill="#9bff9b" stroke="#9bff9b" d="M669,-213C669,-207 675,-201 681,-201"/>
<path fill="#9bff9b" stroke="#9bff9b" d="M731,-201C737,-201 743,-207 743,-213"/>
<path fill="#9bff9b" stroke="#9bff9b" d="M743,-225C743,-231 737,-237 731,-237"/>
<polyline fill="none" stroke="#9bff9b" points="731,-237 681,-237 "/>
<path fill="none" stroke="#9bff9b" d="M681,-237C675,-237 669,-231 669,-225"/>
<polyline fill="none" stroke="#9bff9b" points="669,-225 669,-213 "/>
<path fill="none" stroke="#9bff9b" d="M669,-213C669,-207 675,-201 681,-201"/>
<polyline fill="none" stroke="#9bff9b" points="681,-201 731,-201 "/>
<path fill="none" stroke="#9bff9b" d="M731,-201C737,-201 743,-207 743,-213"/>
<polyline fill="none" stroke="#9bff9b" points="743,-213 743,-225 "/>
<path fill="none" stroke="#9bff9b" d="M743,-225C743,-231 737,-237 731,-237"/>
<text text-anchor="middle" x="706" y="-216.5" font-family="sans-serif" font-size="10.00">xsd:boolean</text>
</a>
</g>
<!-- eHex&#45;&gt;xsd:boolean -->
<g id="edge11" class="edge"><title>eHex&#45;&gt;xsd:boolean</title>
<a xlink:href="argushiigi.html#eHex" xlink:title="eHex → xsd:boolean" target="_top">
<path fill="none" stroke="#00c000" d="M706,-127C706,-148.2 706,-169.4 706,-190.6"/>
<polygon fill="#00c000" stroke="#00c000" points="706,-200.672 701.5,-190.672 706,-195.672 706,-190.672 706,-190.672 706,-190.672 706,-195.672 710.5,-190.672 706,-200.672 706,-200.672"/>
</a>
</g>
<!-- implementationFormat&#45;&gt;eHex -->
<g id="edge9" class="edge"><title>implementationFormat&#45;&gt;eHex</title>
<a xlink:href="argushiigi.html#argushiigi" target="_top">
<path fill="none" stroke="#6830d0" d="M603.523,-99.5895C630.145,-106.781 658.628,-114.474 678.62,-119.874"/>
<polygon fill="none" stroke="#6830d0" points="604.385,-96.1969 593.818,-96.9681 602.559,-102.955 604.385,-96.1969"/>
</a>
</g>
<!-- implementationFormat:range -->
<g id="node21" class="node"><title>implementationFormat:range</title>
<a xlink:href="argushiigi.html#argushiigi" xlink:title="any" target="_top">
<ellipse fill="#a0a0a0" stroke="#a0a0a0" cx="706" cy="-89" rx="1.8" ry="1.8"/>
</a>
</g>
<!-- implementationFormat&#45;&gt;implementationFormat:range -->
<g id="edge19" class="edge"><title>implementationFormat&#45;&gt;implementationFormat:range</title>
<a xlink:href="argushiigi.html#implementationFormat" xlink:title="implementationFormat → any" target="_top">
<path fill="none" stroke="#00c000" d="M531,-80C531,-80 655.286,-86.4286 693.776,-88.4194"/>
<polygon fill="#00c000" stroke="#00c000" points="703.889,-88.9425 693.67,-92.9199 698.896,-88.6842 693.902,-88.4259 693.902,-88.4259 693.902,-88.4259 698.896,-88.6842 694.135,-83.9319 703.889,-88.9425 703.889,-88.9425"/>
</a>
</g>
<!-- javaFormat -->
<g id="node23" class="node"><title>javaFormat</title>
<a xlink:href="argushiigi.html#javaFormat" xlink:title="java format" target="_top">
<text text-anchor="middle" x="706" y="-48.5" font-family="sans-serif" font-size="10.00">javaFormat</text>
</a>
</g>
<!-- implementationFormat&#45;&gt;javaFormat -->
<g id="edge21" class="edge"><title>implementationFormat&#45;&gt;javaFormat</title>
<a xlink:href="argushiigi.html#argushiigi" target="_top">
<path fill="none" stroke="#6830d0" d="M603.887,-67.8521C626.816,-64.0307 651.087,-59.9854 670.102,-56.8163"/>
<polygon fill="none" stroke="#6830d0" points="603.107,-64.4339 593.818,-69.5303 604.257,-71.3386 603.107,-64.4339"/>
</a>
</g>
<!-- format -->
<g id="node16" class="node"><title>format</title>
<a xlink:href="argushiigi.html#format" xlink:title="format" target="_top">
<text text-anchor="middle" x="178" y="-401.5" font-family="sans-serif" font-size="10.00">format</text>
</a>
</g>
<!-- format&#45;&gt;Format -->
<g id="edge15" class="edge"><title>format&#45;&gt;Format</title>
<a xlink:href="argushiigi.html#format" xlink:title="format → Format" target="_top">
<path fill="none" stroke="#969600" d="M179,-404C179,-404 265.646,-404 316.651,-404"/>
<polygon fill="#969600" stroke="#969600" points="326.95,-404 316.95,-408.5 321.95,-404 316.95,-404 316.95,-404 316.95,-404 321.95,-404 316.95,-399.5 326.95,-404 326.95,-404"/>
</a>
</g>
<!-- labelFormat -->
<g id="node25" class="node"><title>labelFormat</title>
<a xlink:href="argushiigi.html#labelFormat" xlink:title="label format" target="_top">
<text text-anchor="middle" x="354" y="-293.5" font-family="sans-serif" font-size="10.00">labelFormat</text>
</a>
</g>
<!-- format&#45;&gt;labelFormat -->
<g id="edge23" class="edge"><title>format&#45;&gt;labelFormat</title>
<a xlink:href="argushiigi.html#argushiigi" target="_top">
<path fill="none" stroke="#6830d0" d="M213.72,-382.449C245.993,-362.418 293.519,-332.919 323.864,-314.084"/>
<polygon fill="none" stroke="#6830d0" points="211.7,-379.584 205.05,-387.831 215.392,-385.531 211.7,-379.584"/>
</a>
</g>
<!-- valueFormat -->
<g id="node61" class="node"><title>valueFormat</title>
<a xlink:href="argushiigi.html#valueFormat" xlink:title="value format" target="_top">
<text text-anchor="middle" x="354" y="-239.5" font-family="sans-serif" font-size="10.00">valueFormat</text>
</a>
</g>
<!-- format&#45;&gt;valueFormat -->
<g id="edge63" class="edge"><title>format&#45;&gt;valueFormat</title>
<a xlink:href="argushiigi.html#argushiigi" target="_top">
<path fill="none" stroke="#6830d0" d="M202.642,-378.113C228.9,-349.954 273.125,-304.251 315,-269 318.591,-265.977 322.505,-262.938 326.412,-260.045"/>
<polygon fill="none" stroke="#6830d0" points="199.963,-375.855 195.729,-385.567 205.096,-380.615 199.963,-375.855"/>
</a>
</g>
<!-- format:domain -->
<g id="node17" class="node"><title>format:domain</title>
<a xlink:href="argushiigi.html#argushiigi" xlink:title="any" target="_top">
<ellipse fill="#a0a0a0" stroke="#a0a0a0" cx="2" cy="-404" rx="1.8" ry="1.8"/>
</a>
</g>
<!-- format:domain&#45;&gt;format -->
<g id="edge13" class="edge"><title>format:domain&#45;&gt;format</title>
<a xlink:href="argushiigi.html#format" xlink:title="any → format" target="_top">
<path fill="none" stroke="#969600" d="M4.11113,-404C18.9302,-404 177,-404 177,-404"/>
</a>
</g>
<!-- xsd:language -->
<g id="node31" class="node"><title>xsd:language</title>
<a xlink:href="http://www.w3.org/2001/XMLSchema#language" xlink:title="xsd:language" target="_top">
<polygon fill="#9bff9b" stroke="#9bff9b" points="734,-291 678,-291 666,-279 666,-267 678,-255 734,-255 746,-267 746,-279 734,-291"/>
<path fill="#9bff9b" stroke="#9bff9b" d="M678,-291C672,-291 666,-285 666,-279"/>
<path fill="#9bff9b" stroke="#9bff9b" d="M666,-267C666,-261 672,-255 678,-255"/>
<path fill="#9bff9b" stroke="#9bff9b" d="M734,-255C740,-255 746,-261 746,-267"/>
<path fill="#9bff9b" stroke="#9bff9b" d="M746,-279C746,-285 740,-291 734,-291"/>
<polyline fill="none" stroke="#9bff9b" points="734,-291 678,-291 "/>
<path fill="none" stroke="#9bff9b" d="M678,-291C672,-291 666,-285 666,-279"/>
<polyline fill="none" stroke="#9bff9b" points="666,-279 666,-267 "/>
<path fill="none" stroke="#9bff9b" d="M666,-267C666,-261 672,-255 678,-255"/>
<polyline fill="none" stroke="#9bff9b" points="678,-255 734,-255 "/>
<path fill="none" stroke="#9bff9b" d="M734,-255C740,-255 746,-261 746,-267"/>
<polyline fill="none" stroke="#9bff9b" points="746,-267 746,-279 "/>
<path fill="none" stroke="#9bff9b" d="M746,-279C746,-285 740,-291 734,-291"/>
<text text-anchor="middle" x="706" y="-270.5" font-family="sans-serif" font-size="10.00">xsd:language</text>
</a>
</g>
<!-- language&#45;&gt;xsd:language -->
<g id="edge29" class="edge"><title>language&#45;&gt;xsd:language</title>
<a xlink:href="argushiigi.html#language" xlink:title="language → xsd:language" target="_top">
<path fill="none" stroke="#00c000" d="M531,-296C531,-296 604.521,-286.282 655.981,-279.479"/>
<polygon fill="#00c000" stroke="#00c000" points="665.951,-278.162 656.627,-283.933 660.994,-278.817 656.037,-279.472 656.037,-279.472 656.037,-279.472 660.994,-278.817 655.448,-275.011 665.951,-278.162 665.951,-278.162"/>
</a>
</g>
<!-- literal:range -->
<g id="node34" class="node"><title>literal:range</title>
<a xlink:href="argushiigi.html#argushiigi" xlink:title="any" target="_top">
<ellipse fill="#a0a0a0" stroke="#a0a0a0" cx="706" cy="-5" rx="1.8" ry="1.8"/>
</a>
</g>
<!-- literal&#45;&gt;literal:range -->
<g id="edge33" class="edge"><title>literal&#45;&gt;literal:range</title>
<a xlink:href="argushiigi.html#literal" xlink:title="literal → any" target="_top">
<path fill="none" stroke="#00c000" d="M531,-18C531,-18 655.286,-8.7143 693.776,-5.83858"/>
<polygon fill="#00c000" stroke="#00c000" points="703.889,-5.08302 694.252,-10.3156 698.903,-5.45559 693.917,-5.82816 693.917,-5.82816 693.917,-5.82816 698.903,-5.45559 693.581,-1.34066 703.889,-5.08302 703.889,-5.08302"/>
</a>
</g>
<!-- multiple&#45;&gt;xsd:boolean -->
<g id="edge37" class="edge"><title>multiple&#45;&gt;xsd:boolean</title>
<a xlink:href="argushiigi.html#multiple" xlink:title="multiple → xsd:boolean" target="_top">
<path fill="none" stroke="#00c000" d="M531,-242C531,-242 607.449,-231.895 658.999,-225.081"/>
<polygon fill="#00c000" stroke="#00c000" points="668.947,-223.766 659.623,-229.537 663.99,-224.421 659.033,-225.076 659.033,-225.076 659.033,-225.076 663.99,-224.421 658.444,-220.615 668.947,-223.766 668.947,-223.766"/>
</a>
</g>
<!-- rdf:Seq -->
<g id="node45" class="node"><title>rdf:Seq</title>
<a xlink:href="http://www.w3.org/1999/02/22-rdf-syntax-ns#Seq" xlink:title="rdf:Seq" target="_top">
<polygon fill="#c0d2ff" stroke="#c0d2ff" points="721,-422 691,-422 679,-410 679,-398 691,-386 721,-386 733,-398 733,-410 721,-422"/>
<path fill="#c0d2ff" stroke="#c0d2ff" d="M691,-422C685,-422 679,-416 679,-410"/>
<path fill="#c0d2ff" stroke="#c0d2ff" d="M679,-398C679,-392 685,-386 691,-386"/>
<path fill="#c0d2ff" stroke="#c0d2ff" d="M721,-386C727,-386 733,-392 733,-398"/>
<path fill="#c0d2ff" stroke="#c0d2ff" d="M733,-410C733,-416 727,-422 721,-422"/>
<polyline fill="none" stroke="#c0d2ff" points="721,-422 691,-422 "/>
<path fill="none" stroke="#c0d2ff" d="M691,-422C685,-422 679,-416 679,-410"/>
<polyline fill="none" stroke="#c0d2ff" points="679,-410 679,-398 "/>
<path fill="none" stroke="#c0d2ff" d="M679,-398C679,-392 685,-386 691,-386"/>
<polyline fill="none" stroke="#c0d2ff" points="691,-386 721,-386 "/>
<path fill="none" stroke="#c0d2ff" d="M721,-386C727,-386 733,-392 733,-398"/>
<polyline fill="none" stroke="#c0d2ff" points="733,-398 733,-410 "/>
<path fill="none" stroke="#c0d2ff" d="M733,-410C733,-416 727,-422 721,-422"/>
<text text-anchor="middle" x="706" y="-401.5" font-family="sans-serif" font-size="10.00">rdf:Seq</text>
</a>
</g>
<!-- pattern&#45;&gt;rdf:Seq -->
<g id="edge45" class="edge"><title>pattern&#45;&gt;rdf:Seq</title>
<a xlink:href="argushiigi.html#pattern" xlink:title="pattern → rdf:Seq" target="_top">
<path fill="none" stroke="#6830d0" d="M531,-404C531,-404 617.646,-404 668.651,-404"/>
<polygon fill="#6830d0" stroke="#6830d0" points="678.95,-404 668.95,-408.5 673.95,-404 668.95,-404 668.95,-404 668.95,-404 673.95,-404 668.95,-399.5 678.95,-404 678.95,-404"/>
</a>
</g>
<!-- priority -->
<g id="node46" class="node"><title>priority</title>
<a xlink:href="argushiigi.html#priority" xlink:title="display priority" target="_top">
<text text-anchor="middle" x="530" y="-455.5" font-family="sans-serif" font-size="10.00">priority</text>
</a>
</g>
<!-- xsd:integer -->
<g id="node50" class="node"><title>xsd:integer</title>
<a xlink:href="http://www.w3.org/2001/XMLSchema#integer" xlink:title="xsd:integer" target="_top">
<polygon fill="#9bff9b" stroke="#9bff9b" points="729,-345 683,-345 671,-333 671,-321 683,-309 729,-309 741,-321 741,-333 729,-345"/>
<path fill="#9bff9b" stroke="#9bff9b" d="M683,-345C677,-345 671,-339 671,-333"/>
<path fill="#9bff9b" stroke="#9bff9b" d="M671,-321C671,-315 677,-309 683,-309"/>
<path fill="#9bff9b" stroke="#9bff9b" d="M729,-309C735,-309 741,-315 741,-321"/>
<path fill="#9bff9b" stroke="#9bff9b" d="M741,-333C741,-339 735,-345 729,-345"/>
<polyline fill="none" stroke="#9bff9b" points="729,-345 683,-345 "/>
<path fill="none" stroke="#9bff9b" d="M683,-345C677,-345 671,-339 671,-333"/>
<polyline fill="none" stroke="#9bff9b" points="671,-333 671,-321 "/>
<path fill="none" stroke="#9bff9b" d="M671,-321C671,-315 677,-309 683,-309"/>
<polyline fill="none" stroke="#9bff9b" points="683,-309 729,-309 "/>
<path fill="none" stroke="#9bff9b" d="M729,-309C735,-309 741,-315 741,-321"/>
<polyline fill="none" stroke="#9bff9b" points="741,-321 741,-333 "/>
<path fill="none" stroke="#9bff9b" d="M741,-333C741,-339 735,-345 729,-345"/>
<text text-anchor="middle" x="706" y="-324.5" font-family="sans-serif" font-size="10.00">xsd:integer</text>
</a>
</g>
<!-- priority&#45;&gt;xsd:integer -->
<g id="edge49" class="edge"><title>priority&#45;&gt;xsd:integer</title>
<a xlink:href="argushiigi.html#priority" xlink:title="priority → xsd:integer" target="_top">
<path fill="none" stroke="#969600" d="M531,-458C531,-458 568.5,-447.666 594,-431 603.385,-424.866 649.166,-381.103 678.924,-352.335"/>
<polygon fill="#969600" stroke="#969600" points="686.481,-345.02 682.426,-355.208 682.889,-348.498 679.296,-351.975 679.296,-351.975 679.296,-351.975 682.889,-348.498 676.166,-348.742 686.481,-345.02 686.481,-345.02"/>
</a>
</g>
<!-- priority:domain -->
<g id="node47" class="node"><title>priority:domain</title>
<a xlink:href="argushiigi.html#argushiigi" xlink:title="any" target="_top">
<ellipse fill="#a0a0a0" stroke="#a0a0a0" cx="354" cy="-458" rx="1.8" ry="1.8"/>
</a>
</g>
<!-- priority:domain&#45;&gt;priority -->
<g id="edge47" class="edge"><title>priority:domain&#45;&gt;priority</title>
<a xlink:href="argushiigi.html#priority" xlink:title="any → priority" target="_top">
<path fill="none" stroke="#969600" d="M356.111,-458C370.93,-458 529,-458 529,-458"/>
</a>
</g>
<!-- rdf:Property -->
<g id="node54" class="node"><title>rdf:Property</title>
<a xlink:href="http://www.w3.org/1999/02/22-rdf-syntax-ns#Property" xlink:title="rdf:Property" target="_top">
<polygon fill="#c0d2ff" stroke="#c0d2ff" points="730.5,-476 681.5,-476 669.5,-464 669.5,-452 681.5,-440 730.5,-440 742.5,-452 742.5,-464 730.5,-476"/>
<path fill="#c0d2ff" stroke="#c0d2ff" d="M681.5,-476C675.5,-476 669.5,-470 669.5,-464"/>
<path fill="#c0d2ff" stroke="#c0d2ff" d="M669.5,-452C669.5,-446 675.5,-440 681.5,-440"/>
<path fill="#c0d2ff" stroke="#c0d2ff" d="M730.5,-440C736.5,-440 742.5,-446 742.5,-452"/>
<path fill="#c0d2ff" stroke="#c0d2ff" d="M742.5,-464C742.5,-470 736.5,-476 730.5,-476"/>
<polyline fill="none" stroke="#c0d2ff" points="730.5,-476 681.5,-476 "/>
<path fill="none" stroke="#c0d2ff" d="M681.5,-476C675.5,-476 669.5,-470 669.5,-464"/>
<polyline fill="none" stroke="#c0d2ff" points="669.5,-464 669.5,-452 "/>
<path fill="none" stroke="#c0d2ff" d="M669.5,-452C669.5,-446 675.5,-440 681.5,-440"/>
<polyline fill="none" stroke="#c0d2ff" points="681.5,-440 730.5,-440 "/>
<path fill="none" stroke="#c0d2ff" d="M730.5,-440C736.5,-440 742.5,-446 742.5,-452"/>
<polyline fill="none" stroke="#c0d2ff" points="742.5,-452 742.5,-464 "/>
<path fill="none" stroke="#c0d2ff" d="M742.5,-464C742.5,-470 736.5,-476 730.5,-476"/>
<text text-anchor="middle" x="706" y="-455.5" font-family="sans-serif" font-size="10.00">rdf:Property</text>
</a>
</g>
<!-- property&#45;&gt;rdf:Property -->
<g id="edge53" class="edge"><title>property&#45;&gt;rdf:Property</title>
<a xlink:href="argushiigi.html#property" xlink:title="property → rdf:Property" target="_top">
<path fill="none" stroke="#6830d0" d="M531,-350C531,-350 568.075,-361.003 594,-377 625.672,-396.544 627.52,-409.645 658,-431 659.647,-432.154 661.347,-433.304 663.08,-434.442"/>
<polygon fill="#6830d0" stroke="#6830d0" points="671.916,-439.999 661.055,-438.485 667.684,-437.337 663.451,-434.675 663.451,-434.675 663.451,-434.675 667.684,-437.337 665.847,-430.866 671.916,-439.999 671.916,-439.999"/>
</a>
</g>
<!-- required&#45;&gt;xsd:boolean -->
<g id="edge57" class="edge"><title>required&#45;&gt;xsd:boolean</title>
<a xlink:href="argushiigi.html#required" xlink:title="required → xsd:boolean" target="_top">
<path fill="none" stroke="#00c000" d="M531,-188C531,-188 607.449,-201.62 658.999,-210.804"/>
<polygon fill="#00c000" stroke="#00c000" points="668.947,-212.577 658.313,-215.253 664.025,-211.7 659.102,-210.823 659.102,-210.823 659.102,-210.823 664.025,-211.7 659.891,-206.392 668.947,-212.577 668.947,-212.577"/>
</a>
</g>
<!-- sortProperty&#45;&gt;rdf:Property -->
<g id="edge61" class="edge"><title>sortProperty&#45;&gt;rdf:Property</title>
<a xlink:href="argushiigi.html#sortProperty" xlink:title="sortProperty → rdf:Property" target="_top">
<path fill="none" stroke="#6830d0" d="M531,-512C531,-512 608.192,-488.044 659.748,-472.044"/>
<polygon fill="#6830d0" stroke="#6830d0" points="669.369,-469.058 661.152,-476.32 664.593,-470.54 659.818,-472.022 659.818,-472.022 659.818,-472.022 664.593,-470.54 658.484,-467.724 669.369,-469.058 669.369,-469.058"/>
</a>
</g>
</g>
</svg>
